<svg width="65" height="65" viewBox="0 0 65 65" fill="none" xmlns="http://www.w3.org/2000/svg">
<g clip-path="url(#clip0_1318_2997)">
<path d="M61.2566 24.0855L62.2288 22.3315C62.4877 21.8644 62.319 21.276 61.8519 21.0172C61.463 20.8016 60.9909 20.8834 60.6941 21.1858C56.4567 8.6056 44.6243 0.00292969 31.164 0.00292969C22.8399 0.00292969 15.014 3.24445 9.12807 9.13051C3.24201 15.0166 0.000488281 22.8423 0.000488281 31.1664C0.000488281 38.2513 2.31774 44.9278 6.70151 50.474C10.9533 55.8532 16.9368 59.7302 23.5499 61.3911C24.9696 61.7476 26.4403 61.9684 28.0462 62.066C28.0662 62.0672 28.086 62.0678 28.1058 62.0678C28.613 62.0678 29.0387 61.6727 29.0699 61.1597C29.1022 60.6266 28.6965 60.1685 28.1635 60.136C26.6784 60.0458 25.3233 59.8429 24.0209 59.5157C11.0166 56.2496 1.93411 44.592 1.93411 31.1664C1.93411 15.0491 15.0466 1.93655 31.164 1.93655C43.7499 1.93655 54.8184 9.95449 58.8245 21.693C58.4294 21.6234 58.0168 21.8054 57.8114 22.1757C57.5526 22.6426 57.7213 23.2312 58.1882 23.4899L59.9151 24.4472C59.9665 24.4779 60.3013 24.6701 60.7057 24.5408C61.0588 24.4283 61.2221 24.1483 61.2566 24.0855Z" fill="#D3CDBF"/>
<path d="M47.6093 10.0999L10.226 47.4832C9.84848 47.8609 9.84848 48.4729 10.226 48.8505C10.4148 49.0392 10.6623 49.1336 10.9096 49.1336C11.157 49.1336 11.4045 49.0392 11.5932 48.8505L48.9765 11.4672C49.3541 11.0895 49.3541 10.4775 48.9765 10.0999C48.599 9.72257 47.9868 9.72257 47.6093 10.0999Z" fill="#D3CDBF"/>
<path d="M12.3729 16.4346C8.40946 16.4346 7.06277 21.5935 9.15262 21.5935C9.6863 21.5935 10.1194 21.161 10.1194 20.6267C10.1194 19.3841 11.1303 18.3733 12.3727 18.3733C14.4456 18.3733 15.4191 20.9577 13.8527 22.326L8.51388 26.9911C7.8433 27.5771 8.25916 28.6858 9.15004 28.6858H15.5954C16.1294 28.6858 16.5622 28.2481 16.5622 27.714C16.5622 27.1799 16.1294 26.7472 15.5954 26.7472H11.7352L15.1281 23.7861C18.032 21.2517 16.2409 16.4346 12.3729 16.4346Z" fill="#46525E"/>
<path d="M26.2935 24.1689H24.687L24.682 17.4029C24.6815 16.8692 24.2489 16.437 23.7152 16.437C23.1815 16.437 22.7484 16.8696 22.7484 17.4038V24.1689H19.2804C19.3004 24.1114 20.8796 19.5764 20.8952 19.5177C21.2378 18.2134 19.4601 17.7484 19.0637 18.8906L17.0035 24.8236C16.7856 25.4514 17.2525 26.1076 17.9168 26.1076H22.7481C22.7479 27.763 22.6651 28.0354 23.0325 28.4025C23.6407 29.0111 24.6869 28.575 24.6869 27.7165V26.1077H26.2933C26.8274 26.1077 27.2602 25.6749 27.2602 25.1409C27.2603 24.5872 26.8149 24.1689 26.2935 24.1689Z" fill="#46525E"/>
<path d="M41.9997 32.3573C41.8237 32.0727 41.5129 31.8995 41.1783 31.8995H35.2573C34.7239 31.8995 34.2915 32.3319 34.2915 32.8653C34.2915 33.3987 34.7239 33.8311 35.2573 33.8311H39.6167L35.1629 42.7535C34.9247 43.2307 35.1184 43.8106 35.5957 44.0489C35.7342 44.1181 35.8813 44.1508 36.0262 44.1508C36.3807 44.1508 36.7221 43.9549 36.8911 43.6162L42.0423 33.2968C42.1919 32.9972 42.1758 32.6419 41.9997 32.3573Z" fill="#46525E"/>
<path d="M56.5003 27.3249C54.8354 27.6276 53.6262 29.0774 53.6262 30.7695V33.9482C53.6262 35.6408 54.8366 37.0911 56.5018 37.3938L56.8883 37.464C55.1266 46.9205 47.8711 54.4685 38.5704 56.6579C38.3337 54.9227 36.8516 53.629 35.1003 53.629H30.9014C29.1502 53.629 27.6682 54.9223 27.4317 56.6574C26.7436 61.7035 30.6243 65.2263 34.8467 64.9847C51.1185 64.0539 64.1372 50.999 64.9905 34.6901C65.2227 30.2525 61.3468 26.4437 56.5003 27.3249Z" fill="#6C7A88"/>
<path d="M34.8466 64.9844C51.1184 64.0536 64.1371 50.9987 64.9905 34.6898C65.0614 33.3344 64.7475 32.0387 64.1413 30.9164C62.4904 31.2858 61.2212 32.7165 61.1285 34.4879C60.3769 48.8515 48.9832 60.3024 34.6258 61.1236C32.8564 61.2248 31.4342 62.5009 31.0707 64.1504C32.2055 64.7586 33.5086 65.061 34.8466 64.9844Z" fill="#596775"/>
</g>
<defs>
<clipPath id="clip0_1318_2997">
<rect width="65" height="65" fill="white" transform="translate(0.000488281)"/>
</clipPath>
</defs>
</svg>
