<svg width="65" height="65" viewBox="0 0 65 65" fill="none" xmlns="http://www.w3.org/2000/svg">
<g clip-path="url(#clip0_1318_3010)">
<path d="M64.6522 24.2826C64.4101 24.0226 64.0612 23.8885 63.706 23.8885H59.807C58.2325 17.373 54.5509 11.4686 49.3511 7.16219C43.778 2.54706 36.718 0.00380859 29.4697 0C29.3504 0 29.2299 0.0255176 29.1282 0.0881055C28.8539 0.25708 28.7555 0.580811 28.8592 0.857568L32.3398 10.1463C32.4326 10.3943 32.6695 10.5584 32.9342 10.5584C41.1649 10.5584 48.3768 16.0847 50.6 23.8885H47.2522C46.8969 23.8885 46.5481 24.0226 46.306 24.2826C45.8498 24.7726 45.852 25.4909 46.2518 25.9707L54.5038 35.873C54.745 36.1625 55.1024 36.3299 55.4792 36.3299C55.856 36.3299 56.2132 36.1626 56.4545 35.873L64.7065 25.9707C65.1061 25.4909 65.1083 24.7726 64.6522 24.2826Z" fill="#507BE9"/>
<path d="M28.8188 29.834C36.5314 29.834 42.7837 23.5817 42.7837 15.8691C42.7837 8.15657 36.5314 1.9043 28.8188 1.9043C21.1063 1.9043 14.854 8.15657 14.854 15.8691C14.854 23.5817 21.1063 29.834 28.8188 29.834Z" fill="#FFEE78"/>
<path d="M42.7837 15.8691C42.7837 8.15661 36.5314 1.9043 28.8188 1.9043V29.834C36.5314 29.834 42.7837 23.5817 42.7837 15.8691Z" fill="#FCD232"/>
<path d="M28.8188 31.7383C20.0686 31.7383 12.9497 24.6194 12.9497 15.8691C12.9497 7.1189 20.0686 0 28.8188 0C37.5691 0 44.688 7.1189 44.688 15.8691C44.688 24.6194 37.5691 31.7383 28.8188 31.7383ZM28.8188 3.80859C22.1687 3.80859 16.7583 9.21896 16.7583 15.8691C16.7583 22.5193 22.1687 27.9297 28.8188 27.9297C35.469 27.9297 40.8794 22.5193 40.8794 15.8691C40.8794 9.21896 35.469 3.80859 28.8188 3.80859Z" fill="#FCD232"/>
<path d="M40.8794 15.8691C40.8794 22.5193 35.469 27.9297 28.8188 27.9297V31.7383C37.5691 31.7383 44.688 24.6194 44.688 15.8691C44.688 7.1189 37.5691 0 28.8188 0V3.80859C35.469 3.80859 40.8794 9.21896 40.8794 15.8691Z" fill="#F7B90F"/>
<path d="M33.897 19.043C33.897 16.2429 31.6189 13.9648 28.8188 13.9648C28.1188 13.9648 27.5493 13.3953 27.5493 12.6953C27.5493 11.9953 28.1188 11.4258 28.8188 11.4258C29.4201 11.4258 29.9431 11.8521 30.0625 12.4395C30.2717 13.4701 31.2775 14.136 32.3078 13.9268C33.3384 13.7174 34.0042 12.7122 33.795 11.6815C33.4496 9.9808 32.2621 8.61732 30.7231 7.99068V7.61719C30.7231 6.56551 29.8705 5.71289 28.8188 5.71289C27.7672 5.71289 26.9146 6.56551 26.9146 7.61719V7.98903C25.0556 8.74402 23.7407 10.5685 23.7407 12.6953C23.7407 15.4954 26.0188 17.7734 28.8188 17.7734C29.5189 17.7734 30.0884 18.3429 30.0884 19.043C30.0884 19.743 29.5189 20.3125 28.8188 20.3125C28.2176 20.3125 27.6946 19.8862 27.5752 19.2988C27.366 18.2682 26.3609 17.6026 25.3299 17.8115C24.2992 18.0209 23.6334 19.0261 23.8427 20.0568C24.1881 21.7575 25.3756 23.1211 26.9144 23.7477V24.1211C26.9144 25.1728 27.767 26.0254 28.8187 26.0254C29.8704 26.0254 30.723 25.1728 30.723 24.1211V23.7492C32.5821 22.9943 33.897 21.1697 33.897 19.043Z" fill="#FCD232"/>
<path d="M28.8188 13.9648V17.7734C29.5189 17.7734 30.0884 18.3429 30.0884 19.043C30.0884 19.743 29.5189 20.3125 28.8188 20.3125V26.0254C29.8705 26.0254 30.7231 25.1728 30.7231 24.1211V23.7492C32.5821 22.9943 33.897 21.1698 33.897 19.043C33.897 16.2429 31.6189 13.9648 28.8188 13.9648Z" fill="#F7B90F"/>
<path d="M30.0625 12.4395C30.2717 13.4701 31.2775 14.136 32.3078 13.9268C33.3384 13.7174 34.0042 12.7122 33.795 11.6815C33.4496 9.9808 32.2621 8.61732 30.7231 7.99068V7.61719C30.7231 6.56551 29.8705 5.71289 28.8188 5.71289V11.4258C29.4201 11.4258 29.9431 11.8521 30.0625 12.4395Z" fill="#F7B90F"/>
<path d="M64.1965 44.5536C62.789 42.5434 60.0183 42.0549 58.0082 43.4624L44.3869 53.0001C43.8533 53.3737 43.2177 53.5741 42.5665 53.5741H32.5005V62.4608H43.3669C45.321 62.4608 47.2276 61.8597 48.8282 60.7388L63.1052 50.7419C65.1155 49.3344 65.6041 46.5637 64.1965 44.5536Z" fill="#FABE8C"/>
<path d="M44.3869 53.0005C43.8533 53.3741 43.2177 53.5744 42.5665 53.5744L32.5005 52.7939V57.383H42.7837C47.3338 57.383 51.0356 53.6812 51.0356 49.1311C51.0356 48.8745 51.0222 48.6211 50.9992 48.3705L44.3869 53.0005Z" fill="#E6A578"/>
<path d="M64.1965 44.5537C62.789 42.5435 60.0183 42.055 58.0082 43.4625L46.5523 51.4841C46.9794 50.8014 47.227 49.9953 47.227 49.1309C47.227 46.6769 45.2377 44.6875 42.7837 44.6875H31.9927L30.7506 43.7559C28.2769 41.9006 25.2117 40.8789 22.1195 40.8789C19.5128 40.8789 16.9537 41.5877 14.7185 42.9288C14.7185 42.9288 12.6008 44.1995 11.335 44.9589C10.7614 45.3031 10.4106 45.9229 10.4106 46.5918V60.5566C10.4106 61.6083 11.2633 62.4609 12.3149 62.4609H43.3669C45.321 62.4609 47.2276 61.8598 48.8282 60.7389L63.1052 50.742C65.1155 49.3345 65.6041 46.5639 64.1965 44.5537Z" fill="#FFD2AA"/>
<path d="M32.5005 62.4608H43.3669C45.321 62.4608 47.2276 61.8597 48.8282 60.7388L63.1052 50.7419C65.1154 49.3344 65.6039 46.5637 64.1964 44.5536C62.7888 42.5434 60.0182 42.0549 58.008 43.4624L46.5522 51.4839C46.9794 50.8013 47.227 49.9951 47.227 49.1307C47.227 46.6767 45.2377 44.6874 42.7837 44.6874H32.5005V62.4608Z" fill="#FABE8C"/>
<path d="M50.9992 48.3705L46.5523 51.4843C46.5247 51.5283 46.4972 51.5725 46.4681 51.6154C45.6697 52.7973 44.3174 53.5744 42.7837 53.5744H29.4536C28.4019 53.5744 27.5493 54.427 27.5493 55.4787C27.5493 56.5304 28.4019 57.383 29.4536 57.383H42.7837C47.3338 57.383 51.0356 53.6812 51.0356 49.1311C51.0356 48.8745 51.0222 48.6211 50.9992 48.3705Z" fill="#FABE8C"/>
<path d="M12.3149 65H1.90479C0.853105 65 0.000488281 64.1474 0.000488281 63.0957L0.000488281 41.5137C0.000488281 40.462 0.853105 39.6094 1.90479 39.6094H12.3149C13.3666 39.6094 14.2192 40.462 14.2192 41.5137V63.0957C14.2192 64.1474 13.3666 65 12.3149 65Z" fill="#6496F7"/>
<path d="M50.9992 48.3705L46.5523 51.4843C46.5247 51.5283 46.4972 51.5725 46.4681 51.6154C45.6697 52.7973 44.3174 53.5744 42.7837 53.5744H32.5005V57.383H42.7837C47.3338 57.383 51.0356 53.6812 51.0356 49.1311C51.0356 48.8745 51.0222 48.6211 50.9992 48.3705Z" fill="#E6A578"/>
</g>
<defs>
<clipPath id="clip0_1318_3010">
<rect width="65" height="65" fill="white" transform="translate(0.000488281)"/>
</clipPath>
</defs>
</svg>
