<svg width="65" height="65" viewBox="0 0 65 65" fill="none" xmlns="http://www.w3.org/2000/svg">
<g clip-path="url(#clip0_1318_2977)">
<path d="M15.9452 36.5387L8.10449 58.7718L15.993 58.6951L25.7216 36.5387H15.9452Z" fill="#80AAFF"/>
<path d="M25.7212 36.5387L19.599 59.9338L25.765 65.0003L32.5002 45.2937V36.5387H25.7212Z" fill="#80AAFF"/>
<path d="M23.5925 36.5387L15.9934 58.6951L18.0677 58.675L19.5998 59.9338L27.6238 36.5387H23.5925Z" fill="#EAF1FF"/>
<path d="M49.0564 36.5387L56.8971 58.7718L49.0086 58.6951L39.28 36.5387H49.0564Z" fill="#6680FF"/>
<path d="M39.28 36.5387L45.4022 59.9338L39.2362 65.0003L32.501 45.2937V36.5387H39.28Z" fill="#6680FF"/>
<path d="M41.4091 36.5387L49.0082 58.6951L46.934 58.675L45.4018 59.9338L37.3778 36.5387H41.4091Z" fill="#B3CCFF"/>
<path d="M32.4999 1.90625L31.144 23.0483L32.4999 43.3854C43.9541 43.3854 53.2395 34.1 53.2395 22.6459C53.2395 11.1917 43.9541 1.90625 32.4999 1.90625Z" fill="#EAF1FF"/>
<path d="M11.7604 22.6459C11.7604 34.1 21.0458 43.3854 32.5 43.3854V1.90625C21.0458 1.90625 11.7604 11.1917 11.7604 22.6459Z" fill="#F9F9F9"/>
<path d="M55.1461 22.6462C55.1461 10.159 44.987 0 32.4999 0L31.144 1.35585L32.4999 3.8132C42.8844 3.8132 51.3329 12.2616 51.3329 22.6462C51.3329 33.0307 42.8844 41.4791 32.4999 41.4791L31.144 43.3857L32.4999 45.2923C44.987 45.2923 55.1461 35.1333 55.1461 22.6462Z" fill="#FDAE02"/>
<path d="M32.5002 41.4791C22.1157 41.4791 13.6673 33.0307 13.6673 22.6462C13.6673 12.2616 22.1157 3.8132 32.5002 3.8132V0C20.0131 0 9.85413 10.159 9.85413 22.6462C9.85413 35.1333 20.0131 45.2923 32.5002 45.2923V41.4791Z" fill="#FDCB02"/>
<path d="M43.898 15.0947L37.9616 17.0357L32.5007 12.4161L31.145 21.6925L32.5007 31.2679H43.898V15.0947Z" fill="#FD9002"/>
<path d="M32.5008 12.4161L27.04 17.0357L21.1036 15.0947V31.2679H32.5008V12.4161Z" fill="#FDAE02"/>
</g>
<defs>
<clipPath id="clip0_1318_2977">
<rect width="65" height="65" fill="white" transform="translate(0.000488281)"/>
</clipPath>
</defs>
</svg>
