<svg width="65" height="43" viewBox="0 0 65 43" fill="none" xmlns="http://www.w3.org/2000/svg">
<path d="M15.9175 25.5373V36.1666H53.2754C54.3427 36.1666 55.208 35.3013 55.208 34.234C55.208 33.2956 55.208 26.4738 55.208 25.5373L35.5627 22.9603L15.9175 25.5373Z" fill="#8B9BA9"/>
<path d="M51.3427 25.022V32.3015H15.9175V36.1667H53.2754C54.3427 36.1667 55.208 35.3014 55.208 34.2341C55.208 33.3448 55.208 26.4096 55.208 25.5373L51.3427 25.022Z" fill="#6C7A88"/>
<path d="M56.9479 0.0692139L21.7162 0.0692139C20.6489 0.0692139 19.7836 0.934506 19.7836 2.00182V8.02447H6.89506C5.08717 8.02447 3.52072 9.27783 3.12402 11.0417L1.6613 17.5463C1.2856 19.2171 1.09595 20.9245 1.09595 22.637L1.09595 36.1664H19.7836C19.7836 35.8519 19.7836 31.072 19.7836 25.5371H56.948C58.0153 25.5371 58.8806 24.6718 58.8806 23.6045V2.00182C58.8805 0.934377 58.0153 0.0692139 56.9479 0.0692139Z" fill="#FF7E40"/>
<path d="M64.0345 17.2375H58.8806V13.7695H61.4576C61.9914 13.7695 62.4239 13.3368 62.4239 12.8032C62.4239 12.2695 61.9914 11.8369 61.4576 11.8369H58.8806V8.36886H62.746C63.2798 8.36886 63.7123 7.93621 63.7123 7.40255C63.7123 6.8689 63.2798 6.43625 62.746 6.43625H58.8806V2.96812H64.0345C64.5683 2.96812 65.0008 2.53548 65.0008 2.00182C65.0008 1.46816 64.5683 1.03552 64.0345 1.03552H58.62C58.2856 0.458441 57.663 0.0692139 56.948 0.0692139L55.0154 0.0692139V21.672H19.7836C19.7836 14.8735 19.7836 8.20794 19.7836 8.02434H15.9184V25.5372H13.0195C10.2023 25.5372 7.6395 26.641 5.73549 28.4361H1.09595L1.09595 36.1666H19.7836C19.7836 35.9044 19.7836 31.1025 19.7836 25.5372H31.6954H56.948C57.663 25.5372 58.2856 25.148 58.62 24.5709H62.746C63.2798 24.5709 63.7123 24.1383 63.7123 23.6046C63.7123 23.071 63.2798 22.6383 62.746 22.6383H58.8806V19.1702H64.0345C64.5683 19.1702 65.0008 18.7376 65.0008 18.2039C65.0008 17.6702 64.5683 17.2375 64.0345 17.2375Z" fill="#FF6344"/>
<path d="M0.966792 36.1664H8.03962V32.3011H0.966792C0.433134 32.3011 0.000488281 32.7338 0.000488281 33.2675L0.000488281 35.2001C0.000488281 35.7338 0.433134 36.1664 0.966792 36.1664Z" fill="#8B9BA9"/>
<path d="M15.9184 11.8895H6.66454L4.82715 20.0602H15.9184V11.8895Z" fill="#9DC6FB"/>
<path d="M12.2837 16.195H5.69631L4.82715 20.0602H15.9184V11.8895H12.2837V16.195Z" fill="#80B4FB"/>
<path d="M45.8672 42.9305C49.6029 42.9305 52.6313 39.9021 52.6313 36.1663C52.6313 32.4306 49.6029 29.4022 45.8672 29.4022C42.1314 29.4022 39.103 32.4306 39.103 36.1663C39.103 39.9021 42.1314 42.9305 45.8672 42.9305Z" fill="#4D5967"/>
<path d="M47.2504 29.5449C46.4576 31.0097 46.6793 32.8784 47.9174 34.1164L43.8177 38.2162C42.5797 36.978 40.711 36.7561 39.2461 37.5491C39.8862 40.6177 42.6117 42.9304 45.8676 42.9304C49.5974 42.9304 52.6317 39.8961 52.6317 36.1663C52.6316 32.9104 50.319 30.185 47.2504 29.5449Z" fill="#35404A"/>
<path d="M45.8669 39.0654C47.468 39.0654 48.7658 37.7675 48.7658 36.1665C48.7658 34.5655 47.468 33.2676 45.8669 33.2676C44.2659 33.2676 42.968 34.5655 42.968 36.1665C42.968 37.7675 44.2659 39.0654 45.8669 39.0654Z" fill="#FFF9EB"/>
<path d="M13.0193 42.9305C16.755 42.9305 19.7834 39.9021 19.7834 36.1663C19.7834 32.4306 16.755 29.4022 13.0193 29.4022C9.28353 29.4022 6.25513 32.4306 6.25513 36.1663C6.25513 39.9021 9.28353 42.9305 13.0193 42.9305Z" fill="#4D5967"/>
<path d="M14.4025 29.5449C13.6096 31.0097 13.8314 32.8784 15.0695 34.1164L10.9698 38.2162C9.73181 36.978 7.86311 36.7561 6.39819 37.5491C7.03827 40.6177 9.76376 42.9304 13.0197 42.9304C16.7495 42.9304 19.7838 39.8961 19.7838 36.1663C19.7838 32.9104 17.4713 30.185 14.4025 29.5449Z" fill="#35404A"/>
<path d="M13.019 39.0654C14.6201 39.0654 15.9179 37.7675 15.9179 36.1665C15.9179 34.5655 14.6201 33.2676 13.019 33.2676C11.418 33.2676 10.1201 34.5655 10.1201 36.1665C10.1201 37.7675 11.418 39.0654 13.019 39.0654Z" fill="#FFF9EB"/>
<path d="M29.5611 10.8712V11.8375H30.785C31.3186 11.8375 31.751 12.2699 31.751 12.8037C31.751 13.3374 31.3186 13.77 30.785 13.77H29.5611V15.7023C29.5611 16.2361 29.1285 16.6686 28.595 16.6686C28.0614 16.6686 27.6289 16.2362 27.6289 15.7023V9.90513C27.6289 9.37148 28.0614 8.93909 28.595 8.93909H31.5579C32.0916 8.93909 32.5239 9.37148 32.5239 9.90513C32.5239 10.4389 32.0916 10.8714 31.5579 10.8714H29.5611V10.8712Z" fill="#FFF9EB"/>
<path d="M38.7699 15.0216C39.1453 15.4003 39.1429 16.0122 38.7641 16.3879C38.5755 16.5746 38.3297 16.668 38.0837 16.668C37.835 16.668 37.5865 16.5727 37.3976 16.3821L35.765 14.7357H35.2496V15.7017C35.2496 16.2355 34.817 16.668 34.2834 16.668C33.7499 16.668 33.3174 16.2356 33.3174 15.7017V9.90452C33.3174 9.37087 33.7499 8.93848 34.2834 8.93848H36.1677C37.757 8.93848 39.05 10.2389 39.05 11.837C39.05 12.7799 38.5997 13.6187 37.9041 14.1485L38.7699 15.0216ZM37.1175 11.837C37.1175 11.3041 36.6913 10.8707 36.1677 10.8707H35.2496V12.803H36.1677C36.6913 12.803 37.1175 12.3696 37.1175 11.837Z" fill="#FFF9EB"/>
<path d="M45.0388 15.7016C45.0388 16.2354 44.6064 16.6679 44.0728 16.6679H41.1098C40.5763 16.6679 40.1438 16.2355 40.1438 15.7016V9.9044C40.1438 9.37074 40.5763 8.93835 41.1098 8.93835H44.0728C44.6064 8.93835 45.0388 9.37074 45.0388 9.9044C45.0388 10.4382 44.6064 10.8707 44.0728 10.8707H42.076V11.837H43.2999C43.8335 11.837 44.2659 12.2694 44.2659 12.8032C44.2659 13.337 43.8335 13.7695 43.2999 13.7695H42.076V14.7357H44.0728C44.6064 14.7355 45.0388 15.1679 45.0388 15.7016Z" fill="#FFF9EB"/>
<path d="M51.0344 15.7016C51.0344 16.2354 50.602 16.6679 50.0684 16.6679H47.1054C46.5719 16.6679 46.1394 16.2355 46.1394 15.7016V9.9044C46.1394 9.37074 46.5719 8.93835 47.1054 8.93835H50.0684C50.602 8.93835 51.0344 9.37074 51.0344 9.9044C51.0344 10.4382 50.602 10.8707 50.0684 10.8707H48.0716V11.837H49.2955C49.8291 11.837 50.2615 12.2694 50.2615 12.8032C50.2615 13.337 49.8291 13.7695 49.2955 13.7695H48.0716V14.7357H50.0684C50.602 14.7355 51.0344 15.1679 51.0344 15.7016Z" fill="#FFF9EB"/>
</svg>
